<mxfile host="app.diagrams.net" agent="Mozilla/5.0 (Windows NT 10.0; Win64; x64) AppleWebKit/537.36 (KHTML, like Gecko) Chrome/131.0.0.0 Safari/537.36" version="25.0.3">
  <diagram name="หน้า-1" id="O2WIiRROs_pupzjysDH9">
    <mxGraphModel dx="1050" dy="530" grid="1" gridSize="10" guides="1" tooltips="1" connect="1" arrows="1" fold="1" page="1" pageScale="1" pageWidth="827" pageHeight="1169" math="0" shadow="0">
      <root>
        <mxCell id="0" />
        <mxCell id="1" parent="0" />
        <mxCell id="2Gvh3d8atpznEu2oOPa7-4" value="" style="edgeStyle=orthogonalEdgeStyle;rounded=0;orthogonalLoop=1;jettySize=auto;html=1;" edge="1" parent="1" source="2Gvh3d8atpznEu2oOPa7-1" target="2Gvh3d8atpznEu2oOPa7-3">
          <mxGeometry relative="1" as="geometry" />
        </mxCell>
        <mxCell id="2Gvh3d8atpznEu2oOPa7-1" value="Start" style="ellipse;whiteSpace=wrap;html=1;" vertex="1" parent="1">
          <mxGeometry x="354" y="10" width="120" height="80" as="geometry" />
        </mxCell>
        <mxCell id="2Gvh3d8atpznEu2oOPa7-6" value="" style="edgeStyle=orthogonalEdgeStyle;rounded=0;orthogonalLoop=1;jettySize=auto;html=1;" edge="1" parent="1" source="2Gvh3d8atpznEu2oOPa7-3" target="2Gvh3d8atpznEu2oOPa7-5">
          <mxGeometry relative="1" as="geometry" />
        </mxCell>
        <mxCell id="2Gvh3d8atpznEu2oOPa7-3" value="Input Name1" style="shape=parallelogram;perimeter=parallelogramPerimeter;whiteSpace=wrap;html=1;fixedSize=1;" vertex="1" parent="1">
          <mxGeometry x="354" y="180" width="120" height="60" as="geometry" />
        </mxCell>
        <mxCell id="2Gvh3d8atpznEu2oOPa7-8" value="" style="edgeStyle=orthogonalEdgeStyle;rounded=0;orthogonalLoop=1;jettySize=auto;html=1;" edge="1" parent="1" source="2Gvh3d8atpznEu2oOPa7-5" target="2Gvh3d8atpznEu2oOPa7-7">
          <mxGeometry relative="1" as="geometry" />
        </mxCell>
        <mxCell id="2Gvh3d8atpznEu2oOPa7-5" value="Iput Age1" style="shape=parallelogram;perimeter=parallelogramPerimeter;whiteSpace=wrap;html=1;fixedSize=1;" vertex="1" parent="1">
          <mxGeometry x="354" y="320" width="120" height="60" as="geometry" />
        </mxCell>
        <mxCell id="2Gvh3d8atpznEu2oOPa7-10" value="" style="edgeStyle=orthogonalEdgeStyle;rounded=0;orthogonalLoop=1;jettySize=auto;html=1;" edge="1" parent="1" source="2Gvh3d8atpznEu2oOPa7-7" target="2Gvh3d8atpznEu2oOPa7-9">
          <mxGeometry relative="1" as="geometry" />
        </mxCell>
        <mxCell id="2Gvh3d8atpznEu2oOPa7-7" value="Input Name2" style="shape=parallelogram;perimeter=parallelogramPerimeter;whiteSpace=wrap;html=1;fixedSize=1;" vertex="1" parent="1">
          <mxGeometry x="354" y="460" width="120" height="60" as="geometry" />
        </mxCell>
        <mxCell id="2Gvh3d8atpznEu2oOPa7-12" value="" style="edgeStyle=orthogonalEdgeStyle;rounded=0;orthogonalLoop=1;jettySize=auto;html=1;" edge="1" parent="1" source="2Gvh3d8atpznEu2oOPa7-9" target="2Gvh3d8atpznEu2oOPa7-11">
          <mxGeometry relative="1" as="geometry" />
        </mxCell>
        <mxCell id="2Gvh3d8atpznEu2oOPa7-9" value="Input Age2" style="shape=parallelogram;perimeter=parallelogramPerimeter;whiteSpace=wrap;html=1;fixedSize=1;" vertex="1" parent="1">
          <mxGeometry x="354" y="600" width="120" height="60" as="geometry" />
        </mxCell>
        <mxCell id="2Gvh3d8atpznEu2oOPa7-14" value="" style="edgeStyle=orthogonalEdgeStyle;rounded=0;orthogonalLoop=1;jettySize=auto;html=1;" edge="1" parent="1" source="2Gvh3d8atpznEu2oOPa7-11" target="2Gvh3d8atpznEu2oOPa7-13">
          <mxGeometry relative="1" as="geometry" />
        </mxCell>
        <mxCell id="2Gvh3d8atpznEu2oOPa7-11" value="Output Name1 Age1" style="shape=parallelogram;perimeter=parallelogramPerimeter;whiteSpace=wrap;html=1;fixedSize=1;" vertex="1" parent="1">
          <mxGeometry x="346" y="740" width="136" height="60" as="geometry" />
        </mxCell>
        <mxCell id="2Gvh3d8atpznEu2oOPa7-16" value="" style="edgeStyle=orthogonalEdgeStyle;rounded=0;orthogonalLoop=1;jettySize=auto;html=1;" edge="1" parent="1" source="2Gvh3d8atpznEu2oOPa7-13" target="2Gvh3d8atpznEu2oOPa7-15">
          <mxGeometry relative="1" as="geometry" />
        </mxCell>
        <mxCell id="2Gvh3d8atpznEu2oOPa7-13" value="Output Name2 Age2" style="shape=parallelogram;perimeter=parallelogramPerimeter;whiteSpace=wrap;html=1;fixedSize=1;" vertex="1" parent="1">
          <mxGeometry x="346" y="880" width="136" height="60" as="geometry" />
        </mxCell>
        <mxCell id="2Gvh3d8atpznEu2oOPa7-18" value="" style="edgeStyle=orthogonalEdgeStyle;rounded=0;orthogonalLoop=1;jettySize=auto;html=1;" edge="1" parent="1" source="2Gvh3d8atpznEu2oOPa7-15" target="2Gvh3d8atpznEu2oOPa7-17">
          <mxGeometry relative="1" as="geometry" />
        </mxCell>
        <mxCell id="2Gvh3d8atpznEu2oOPa7-15" value="Output Name1 Age2" style="shape=parallelogram;perimeter=parallelogramPerimeter;whiteSpace=wrap;html=1;fixedSize=1;" vertex="1" parent="1">
          <mxGeometry x="346" y="1020" width="136" height="60" as="geometry" />
        </mxCell>
        <mxCell id="2Gvh3d8atpznEu2oOPa7-20" value="" style="edgeStyle=orthogonalEdgeStyle;rounded=0;orthogonalLoop=1;jettySize=auto;html=1;" edge="1" parent="1" source="2Gvh3d8atpznEu2oOPa7-17" target="2Gvh3d8atpznEu2oOPa7-19">
          <mxGeometry relative="1" as="geometry" />
        </mxCell>
        <mxCell id="2Gvh3d8atpznEu2oOPa7-17" value="Output Name2 Age1" style="shape=parallelogram;perimeter=parallelogramPerimeter;whiteSpace=wrap;html=1;fixedSize=1;" vertex="1" parent="1">
          <mxGeometry x="346" y="1160" width="136" height="60" as="geometry" />
        </mxCell>
        <mxCell id="2Gvh3d8atpznEu2oOPa7-19" value="End" style="ellipse;whiteSpace=wrap;html=1;" vertex="1" parent="1">
          <mxGeometry x="354" y="1300" width="120" height="80" as="geometry" />
        </mxCell>
      </root>
    </mxGraphModel>
  </diagram>
</mxfile>
